{"accessors" : [{"bufferView" : 0, "byteOffset" : 0, "componentType" : 5125, "count" : 236544, "type" : "SCALAR", "max" : [156918], "min" : [0]}, {"bufferView" : 1, "byteOffset" : 0, "componentType" : 5126, "count" : 156919, "type" : "VEC3", "max" : [7.46505641937256, 16.3443241119385, 29.2104759216309], "min" : [-3.81295156478882, -0.435875952243805, -0.6512730717659]}, {"bufferView" : 1, "byteOffset" : 12, "componentType" : 5126, "count" : 156919, "type" : "VEC3", "max" : [1.00000441074371, 1.00000381469727, 1.00000441074371], "min" : [-1.00000441074371, -1.00000441074371, -1.00000441074371]}, {"bufferView" : 1, "byteOffset" : 24, "componentType" : 5126, "count" : 156919, "type" : "VEC2", "max" : [0.87500011920929, 1], "min" : [0.125, -1.19209289550781E-07]}, {"bufferView" : 0, "byteOffset" : 946176, "componentType" : 5123, "count" : 26112, "type" : "SCALAR", "max" : [12939], "min" : [0]}, {"bufferView" : 2, "byteOffset" : 0, "componentType" : 5126, "count" : 12940, "type" : "VEC3", "max" : [6.73201084136963, 0.0699999928474426, 28.7050876617432], "min" : [-3.98113822937012, -1.28479862213135, -1.07000017166138]}, {"bufferView" : 2, "byteOffset" : 12, "componentType" : 5126, "count" : 12940, "type" : "VEC3", "max" : [1.00000441074371, 1.00000441074371, 1.00000441074371], "min" : [-1.00000441074371, -1.00000441074371, -1.00000441074371]}, {"bufferView" : 2, "byteOffset" : 24, "componentType" : 5126, "count" : 12940, "type" : "VEC2", "max" : [1.00000011920929, 1], "min" : [0, -1.19209289550781E-07]}, {"bufferView" : 0, "byteOffset" : 998400, "componentType" : 5123, "count" : 43776, "type" : "SCALAR", "max" : [29031], "min" : [0]}, {"bufferView" : 3, "byteOffset" : 0, "componentType" : 5126, "count" : 29032, "type" : "VEC3", "max" : [6.87205219268799, 0.273689985275269, 14.952338218689], "min" : [-6.87205171585083, -0.273689985275269, -14.952338218689]}, {"bufferView" : 3, "byteOffset" : 12, "componentType" : 5126, "count" : 29032, "type" : "VEC3", "max" : [1.00000441074371, 1.00000441074371, 1.00000441074371], "min" : [-1.00000441074371, -1.00000441074371, -1.00000441074371]}, {"bufferView" : 3, "byteOffset" : 24, "componentType" : 5126, "count" : 29032, "type" : "VEC2", "max" : [0.87500011920929, 1], "min" : [0.125, -1.19209289550781E-07]}], "asset" : {"generator" : "Aspose.3D 20.2.1", "version" : "2.0"}, "buffers" : [{"uri" : "buffer.bin", "byteLength" : 7450480}], "bufferViews" : [{"buffer" : 0, "byteOffset" : 0, "byteLength" : 1085952, "target" : 34963}, {"buffer" : 0, "byteOffset" : 1085956, "byteLength" : 5021408, "byteStride" : 32, "target" : 34962}, {"buffer" : 0, "byteOffset" : 6107368, "byteLength" : 414080, "byteStride" : 32, "target" : 34962}, {"buffer" : 0, "byteOffset" : 6521452, "byteLength" : 929024, "byteStride" : 32, "target" : 34962}], "materials" : [{"pbrMetallicRoughness" : {"baseColorFactor" : [0.800000011920929, 0.800000011920929, 0.800000011920929, 1], "metallicFactor" : 0, "roughnessFactor" : 0.400000005960464}, "emissiveFactor" : [0, 0, 0], "alphaMode" : "OPAQUE", "doubleSided" : true}], "meshes" : [{"primitives" : [{"attributes" : {"POSITION" : 1, "NORMAL" : 2, "TEXCOORD_0" : 3}, "indices" : 0, "material" : 0, "mode" : 4}]}, {"primitives" : [{"attributes" : {"POSITION" : 5, "NORMAL" : 6, "TEXCOORD_0" : 7}, "indices" : 4, "mode" : 4}]}, {"primitives" : [{"attributes" : {"POSITION" : 9, "NORMAL" : 10, "TEXCOORD_0" : 11}, "indices" : 8, "mode" : 4}]}], "nodes" : [{"mesh" : 0, "name" : "Cube"}, {"matrix" : [1, 0, 0, 0, 0, 1, 0, 0, 0, 0, 1, 0, 0.196946144104004, 16.4274883270264, 0.462056159973145, 1], "mesh" : 1, "name" : "Plane"}, {"matrix" : [1, 0, 0, 0, 0, 1, 0, 0, 0, 0, 1, 0, 0.963696837425232, 16.8336524963379, 14.2796001434326, 1], "mesh" : 2, "name" : "Cube.001"}], "scene" : 0, "scenes" : [{"nodes" : [0, 1, 2]}]}