{"accessors" : [{"bufferView" : 0, "byteOffset" : 0, "componentType" : 5123, "count" : 84480, "type" : "SCALAR", "max" : [55808], "min" : [0]}, {"bufferView" : 1, "byteOffset" : 0, "componentType" : 5126, "count" : 55809, "type" : "VEC3", "max" : [1.00000011920929, 0.999226629734039, 0.999431610107422], "min" : [-5.54945087432861, -0.999574244022369, -0.999431610107422]}, {"bufferView" : 1, "byteOffset" : 12, "componentType" : 5126, "count" : 55809, "type" : "VEC3", "max" : [1.00000441074371, 1.00000441074371, 1.00000441074371], "min" : [-1.00000441074371, -1.00000441074371, -1.00000441074371]}, {"bufferView" : 1, "byteOffset" : 24, "componentType" : 5126, "count" : 55809, "type" : "VEC2", "max" : [0.87500011920929, 1], "min" : [0.125, -1.19209289550781E-07]}, {"bufferView" : 0, "byteOffset" : 168960, "componentType" : 5123, "count" : 372, "type" : "SCALAR", "max" : [129], "min" : [0]}, {"bufferView" : 2, "byteOffset" : 0, "componentType" : 5126, "count" : 130, "type" : "VEC3", "max" : [1, 1, 1], "min" : [-1, -1, -1]}, {"bufferView" : 2, "byteOffset" : 12, "componentType" : 5126, "count" : 130, "type" : "VEC3", "max" : [0.727884113788605, 0.685717165470123, 0.727884113788605], "min" : [-0.727884113788605, -0.685717165470123, -0.727884113788605]}, {"bufferView" : 2, "byteOffset" : 24, "componentType" : 5126, "count" : 130, "type" : "VEC2", "max" : [1, 0.990000009536743], "min" : [0, 0]}, {"bufferView" : 0, "byteOffset" : 169704, "componentType" : 5123, "count" : 43008, "type" : "SCALAR", "max" : [28375], "min" : [0]}, {"bufferView" : 3, "byteOffset" : 0, "componentType" : 5126, "count" : 28376, "type" : "VEC3", "max" : [2.82913327217102, 1.2410569190979, 1.00000023841858], "min" : [-0.946187376976013, -1.8346403837204, -1.00000023841858]}, {"bufferView" : 3, "byteOffset" : 12, "componentType" : 5126, "count" : 28376, "type" : "VEC3", "max" : [0.923381626605988, 0.9612677693367, 1.00000441074371], "min" : [-0.882237076759338, -1.00000441074371, -1.00000441074371]}, {"bufferView" : 3, "byteOffset" : 24, "componentType" : 5126, "count" : 28376, "type" : "VEC2", "max" : [0.875000178813934, 1], "min" : [0.0915766209363937, -1.19209289550781E-07]}], "asset" : {"generator" : "Aspose.3D 20.2.1", "version" : "2.0"}, "buffers" : [{"uri" : "buffer.bin", "byteLength" : 2953816}], "bufferViews" : [{"buffer" : 0, "byteOffset" : 0, "byteLength" : 255720, "target" : 34963}, {"buffer" : 0, "byteOffset" : 255724, "byteLength" : 1785888, "byteStride" : 32, "target" : 34962}, {"buffer" : 0, "byteOffset" : 2041616, "byteLength" : 4160, "byteStride" : 32, "target" : 34962}, {"buffer" : 0, "byteOffset" : 2045780, "byteLength" : 908032, "byteStride" : 32, "target" : 34962}], "materials" : [{"pbrMetallicRoughness" : {"baseColorFactor" : [0.800000011920929, 0.800000011920929, 0.800000011920929, 1], "metallicFactor" : 0, "roughnessFactor" : 0.400000005960464}, "emissiveFactor" : [0, 0, 0], "alphaMode" : "OPAQUE", "doubleSided" : true}], "meshes" : [{"primitives" : [{"attributes" : {"POSITION" : 1, "NORMAL" : 2, "TEXCOORD_0" : 3}, "indices" : 0, "material" : 0, "mode" : 4}]}, {"primitives" : [{"attributes" : {"POSITION" : 5, "NORMAL" : 6, "TEXCOORD_0" : 7}, "indices" : 4, "mode" : 4}]}, {"primitives" : [{"attributes" : {"POSITION" : 9, "NORMAL" : 10, "TEXCOORD_0" : 11}, "indices" : 8, "mode" : 4}]}], "nodes" : [{"matrix" : [0.25, 0, 0, 0, 0, 5, 0, 0, 0, 0, 8.5, 0, 0, 10, 0, 1], "mesh" : 0, "name" : "Cube"}, {"matrix" : [0.444488942623138, 0, 0, 0, 0, 2.0706033706665, 0, 0, 0, 0, 0.444488942623138, 0, -0.936671018600464, 4.72747373580933, 0, 1], "mesh" : 1, "name" : "Cylinder"}, {"matrix" : [0.72044563293457, 0, 0, 0, 0, 0.561485469341278, 0, 0, 0, 0, 6.41316986083984, 0, -0.833739042282104, 2.1604015827179, 0, 1], "mesh" : 2, "name" : "Cube.001"}], "scene" : 0, "scenes" : [{"nodes" : [0, 1, 2]}]}