{
  "accessors": [
    {
      "bufferView": 2,
      "componentType": 5126,
      "count": 325,
      "max": [
        2.528278112411499,
        6.1101069450378418,
        9.3060417175292969
      ],
      "min": [
        -2.5282783508300781,
        -6.1390299797058105,
        -0.22531497478485107
      ],
      "type": "VEC3"
    },
    {
      "bufferView": 2,
      "byteOffset": 3900,
      "componentType": 5126,
      "count": 325,
      "max": [
        1,
        1,
        1
      ],
      "min": [
        -1,
        -1,
        -1
      ],
      "type": "VEC3"
    },
    {
      "bufferView": 1,
      "componentType": 5126,
      "count": 325,
      "max": [
        0.875,
        1
      ],
      "min": [
        0.125,
        0
      ],
      "type": "VEC2"
    },
    {
      "bufferView": 0,
      "componentType": 5125,
      "count": 972,
      "max": [
        324
      ],
      "min": [
        0
      ],
      "type": "SCALAR"
    },
    {
      "bufferView": 2,
      "byteOffset": 7800,
      "componentType": 5126,
      "count": 4,
      "max": [
        -1.4643340110778809,
        5.9328913688659668,
        9.1288261413574219
      ],
      "min": [
        -1.4643340110778809,
        -5.9618144035339355,
        2.5909841060638428
      ],
      "type": "VEC3"
    },
    {
      "bufferView": 2,
      "byteOffset": 7848,
      "componentType": 5126,
      "count": 4,
      "max": [
        -1,
        0,
        0
      ],
      "min": [
        -1,
        0,
        0
      ],
      "type": "VEC3"
    },
    {
      "bufferView": 1,
      "byteOffset": 2600,
      "componentType": 5126,
      "count": 4,
      "max": [
        0.61857199668884277,
        0.24638311564922333
      ],
      "min": [
        0.381428062915802,
        0.0036168990191072226
      ],
      "type": "VEC2"
    },
    {
      "bufferView": 0,
      "byteOffset": 3888,
      "componentType": 5125,
      "count": 6,
      "max": [
        3
      ],
      "min": [
        0
      ],
      "type": "SCALAR"
    },
    {
      "bufferView": 2,
      "byteOffset": 7896,
      "componentType": 5126,
      "count": 36,
      "max": [
        -1.1823639869689941,
        6.1101069450378418,
        2.4137685298919678
      ],
      "min": [
        -1.4643340110778809,
        -6.1390299797058105,
        1.5706261396408081
      ],
      "type": "VEC3"
    },
    {
      "bufferView": 2,
      "byteOffset": 8328,
      "componentType": 5126,
      "count": 36,
      "max": [
        1,
        1,
        0
      ],
      "min": [
        -1,
        -1,
        -0.98078501224517822
      ],
      "type": "VEC3"
    },
    {
      "bufferView": 1,
      "byteOffset": 2632,
      "componentType": 5126,
      "count": 36,
      "max": [
        0.37500002980232239,
        1
      ],
      "min": [
        0.125,
        0.25
      ],
      "type": "VEC2"
    },
    {
      "bufferView": 0,
      "byteOffset": 3912,
      "componentType": 5125,
      "count": 78,
      "max": [
        35
      ],
      "min": [
        0
      ],
      "type": "SCALAR"
    },
    {
      "bufferView": 2,
      "byteOffset": 8760,
      "componentType": 5126,
      "count": 1096,
      "max": [
        1.8605000972747803,
        0.35000002384185791,
        0.049999997019767761
      ],
      "min": [
        -1.8605002164840698,
        -0.35000002384185791,
        -0.049999997019767761
      ],
      "type": "VEC3"
    },
    {
      "bufferView": 2,
      "byteOffset": 21912,
      "componentType": 5126,
      "count": 1096,
      "max": [
        1,
        1,
        1
      ],
      "min": [
        -1,
        -1,
        -1
      ],
      "type": "VEC3"
    },
    {
      "bufferView": 1,
      "byteOffset": 2920,
      "componentType": 5126,
      "count": 1096,
      "max": [
        1,
        1
      ],
      "min": [
        0,
        0
      ],
      "type": "VEC2"
    },
    {
      "bufferView": 0,
      "byteOffset": 4224,
      "componentType": 5125,
      "count": 3192,
      "max": [
        1095
      ],
      "min": [
        0
      ],
      "type": "SCALAR"
    }
  ],
  "asset": {
    "extras": {
      "author": "SKR Games (https://sketchfab.com/skrypious2)",
      "license": "CC-BY-4.0 (http://creativecommons.org/licenses/by/4.0/)",
      "source": "https://sketchfab.com/3d-models/pc-screen-monitor-597999559f8d4fa7b9e9de7c70cbf0e1",
      "title": "PC Screen Monitor"
    },
    "generator": "Sketchfab-8.57.0",
    "version": "2.0"
  },
  "bufferViews": [
    {
      "buffer": 0,
      "byteLength": 16992,
      "byteOffset": 0,
      "name": "floatBufferViews",
      "target": 34963
    },
    {
      "buffer": 0,
      "byteLength": 11688,
      "byteOffset": 16992,
      "byteStride": 8,
      "name": "floatBufferViews",
      "target": 34962
    },
    {
      "buffer": 0,
      "byteLength": 35064,
      "byteOffset": 28680,
      "byteStride": 12,
      "name": "floatBufferViews",
      "target": 34962
    }
  ],
  "buffers": [
    {
      "byteLength": 63744,
      "uri": "scene.bin"
    }
  ],
  "materials": [
    {
      "doubleSided": true,
      "emissiveFactor": [
        0,
        0,
        0
      ],
      "name": "Plastic",
      "pbrMetallicRoughness": {
        "baseColorFactor": [
          0.0236508,
          0.0236508,
          0.0236508,
          1
        ],
        "metallicFactor": 0,
        "roughnessFactor": 0.99471152029999999
      }
    },
    {
      "doubleSided": true,
      "emissiveFactor": [
        0,
        0,
        0
      ],
      "name": "Screen",
      "pbrMetallicRoughness": {
        "baseColorFactor": [
          0,
          0,
          0,
          1
        ],
        "metallicFactor": 0,
        "roughnessFactor": 1
      }
    },
    {
      "doubleSided": true,
      "emissiveFactor": [
        0,
        0,
        0
      ],
      "name": "Plastic2",
      "pbrMetallicRoughness": {
        "baseColorFactor": [
          0.26676100000000003,
          0.26676100000000003,
          0.26676100000000003,
          1
        ],
        "metallicFactor": 0,
        "roughnessFactor": 0.94035042700000004
      }
    },
    {
      "doubleSided": true,
      "emissiveFactor": [
        0,
        0,
        0
      ],
      "name": "Text",
      "pbrMetallicRoughness": {
        "baseColorFactor": [
          0.80000000000000004,
          0.80000000000000004,
          0.80000000000000004,
          1
        ],
        "metallicFactor": 0,
        "roughnessFactor": 0.82111456179999998
      }
    }
  ],
  "meshes": [
    {
      "name": "PCMonitor_Plastic_0",
      "primitives": [
        {
          "attributes": {
            "NORMAL": 1,
            "POSITION": 0,
            "TEXCOORD_0": 2
          },
          "indices": 3,
          "material": 0,
          "mode": 4
        }
      ]
    },
    {
      "name": "PCMonitor_Screen_0",
      "primitives": [
        {
          "attributes": {
            "NORMAL": 5,
            "POSITION": 4,
            "TEXCOORD_0": 6
          },
          "indices": 7,
          "material": 1,
          "mode": 4
        }
      ]
    },
    {
      "name": "PCMonitor_Plastic2_0",
      "primitives": [
        {
          "attributes": {
            "NORMAL": 9,
            "POSITION": 8,
            "TEXCOORD_0": 10
          },
          "indices": 11,
          "material": 2,
          "mode": 4
        }
      ]
    },
    {
      "name": "Text_Text_0",
      "primitives": [
        {
          "attributes": {
            "NORMAL": 13,
            "POSITION": 12,
            "TEXCOORD_0": 14
          },
          "indices": 15,
          "material": 3,
          "mode": 4
        }
      ]
    }
  ],
  "nodes": [
    {
      "children": [
        1
      ],
      "name": "RootNode (gltf orientation matrix)",
      "rotation": [
        -0.70710678118654746,
        -0,
        -0,
        0.70710678118654757
      ]
    },
    {
      "children": [
        2
      ],
      "matrix": [
        1,
        0,
        0,
        0,
        0,
        1,
        0,
        0,
        0,
        0,
        1,
        0,
        0,
        1.5081836863828357e-06,
        3.007765826623654e-06,
        1
      ],
      "name": "RootNode (model correction matrix)"
    },
    {
      "children": [
        3
      ],
      "matrix": [
        1,
        0,
        0,
        0,
        0,
        0,
        1,
        0,
        0,
        -1,
        0,
        0,
        0,
        0,
        0,
        1
      ],
      "name": "e37890c867874044bdddaf2a17e9004b.fbx"
    },
    {
      "children": [
        4
      ],
      "name": "RootNode"
    },
    {
      "children": [
        5,
        6,
        7,
        8
      ],
      "matrix": [
        10.301111221313477,
        0,
        0,
        0,
        0,
        -1.6782640386672098e-06,
        -10.30111122131334,
        0,
        0,
        10.30111122131334,
        -1.6782640386672098e-06,
        0,
        0,
        0,
        0,
        1
      ],
      "name": "PCMonitor"
    },
    {
      "mesh": 0,
      "name": "PCMonitor_Plastic_0"
    },
    {
      "mesh": 1,
      "name": "PCMonitor_Screen_0"
    },
    {
      "mesh": 2,
      "name": "PCMonitor_Plastic2_0"
    },
    {
      "children": [
        9
      ],
      "matrix": [
        4.9967855430294237e-08,
        -0.66184431314468195,
        -4.7394264288494034e-15,
        0,
        4.9967855503773717e-08,
        -1.0287127132386302e-15,
        0.66184431314468195,
        0,
        -0.66184431314468017,
        -4.9967855503773717e-08,
        4.9967855430294237e-08,
        0,
        -1.4533352851867676,
        -0.030102303251624107,
        2.009312629699707,
        1
      ],
      "name": "Text"
    },
    {
      "mesh": 3,
      "name": "Text_Text_0"
    }
  ],
  "scene": 0,
  "scenes": [
    {
      "name": "OSG_Scene",
      "nodes": [
        0
      ]
    }
  ]
}

