{"accessors" : [{"bufferView" : 0, "byteOffset" : 0, "componentType" : 5125, "count" : 188160, "type" : "SCALAR", "max" : [125421], "min" : [0]}, {"bufferView" : 1, "byteOffset" : 0, "componentType" : 5126, "count" : 125422, "type" : "VEC3", "max" : [10.7420806884766, 4.99664735794067, 1.5061069726944], "min" : [-10.742133140564, -4.99629354476929, -0.923737466335297]}, {"bufferView" : 1, "byteOffset" : 12, "componentType" : 5126, "count" : 125422, "type" : "VEC3", "max" : [0.999999344348907, 1.00000309944153, 1.00000393390656], "min" : [-0.999998569488525, -0.999994099140167, -0.999969363212585]}, {"bufferView" : 1, "byteOffset" : 24, "componentType" : 5126, "count" : 125422, "type" : "VEC2", "max" : [0.87500011920929, 1], "min" : [0.125, -1.19209289550781E-07]}, {"bufferView" : 0, "byteOffset" : 752640, "componentType" : 5123, "count" : 84480, "type" : "SCALAR", "max" : [56186], "min" : [0]}, {"bufferView" : 2, "byteOffset" : 0, "componentType" : 5126, "count" : 56187, "type" : "VEC3", "max" : [1.47165739536285, 3.82094120979309, 1.75418543815613], "min" : [-1.47165739536285, -3.82094120979309, -0.663203716278076]}, {"bufferView" : 2, "byteOffset" : 12, "componentType" : 5126, "count" : 56187, "type" : "VEC3", "max" : [1.00000441074371, 1.00000441074371, 1.00000441074371], "min" : [-1.00000441074371, -1.00000441074371, -1.00000393390656]}, {"bufferView" : 2, "byteOffset" : 24, "componentType" : 5126, "count" : 56187, "type" : "VEC2", "max" : [0.87500011920929, 1], "min" : [0.125, -1.19209289550781E-07]}, {"bufferView" : 0, "byteOffset" : 921600, "componentType" : 5123, "count" : 11520, "type" : "SCALAR", "max" : [7519], "min" : [0]}, {"bufferView" : 3, "byteOffset" : 0, "componentType" : 5126, "count" : 7520, "type" : "VEC3", "max" : [3.58221745491028, 0.24775218963623, 2.24348187446594], "min" : [-3.59647846221924, 0, -2.23003482818604]}, {"bufferView" : 3, "byteOffset" : 12, "componentType" : 5126, "count" : 7520, "type" : "VEC3", "max" : [0.960589945316315, 1.00000441074371, 0.911832332611084], "min" : [-0.887383818626404, -1.00000441074371, -0.983787596225739]}, {"bufferView" : 3, "byteOffset" : 24, "componentType" : 5126, "count" : 7520, "type" : "VEC2", "max" : [1.00000011920929, 1], "min" : [0, -1.19209289550781E-07]}], "asset" : {"generator" : "Aspose.3D 20.2.1", "version" : "2.0"}, "buffers" : [{"uri" : "buffer.bin", "byteLength" : 6996784}], "bufferViews" : [{"buffer" : 0, "byteOffset" : 0, "byteLength" : 944640, "target" : 34963}, {"buffer" : 0, "byteOffset" : 944644, "byteLength" : 4013504, "byteStride" : 32, "target" : 34962}, {"buffer" : 0, "byteOffset" : 4958152, "byteLength" : 1797984, "byteStride" : 32, "target" : 34962}, {"buffer" : 0, "byteOffset" : 6756140, "byteLength" : 240640, "byteStride" : 32, "target" : 34962}], "materials" : [{"pbrMetallicRoughness" : {"baseColorFactor" : [0.800000011920929, 0.800000011920929, 0.800000011920929, 1], "metallicFactor" : 0, "roughnessFactor" : 0.400000005960464}, "emissiveFactor" : [0, 0, 0], "alphaMode" : "OPAQUE", "doubleSided" : true}], "meshes" : [{"primitives" : [{"attributes" : {"POSITION" : 1, "NORMAL" : 2, "TEXCOORD_0" : 3}, "indices" : 0, "material" : 0, "mode" : 4}]}, {"primitives" : [{"attributes" : {"POSITION" : 5, "NORMAL" : 6, "TEXCOORD_0" : 7}, "indices" : 4, "mode" : 4}]}, {"primitives" : [{"attributes" : {"POSITION" : 9, "NORMAL" : 10, "TEXCOORD_0" : 11}, "indices" : 8, "mode" : 4}]}], "nodes" : [{"matrix" : [4.99290227890015, 0, 0, 0, 0, 4.99290227890015, 0, 0, 0, 0, 4.99290227890015, 0, 0, 20.3815116882324, 4.02827262878418, 1], "mesh" : 0, "name" : "Cube"}, {"matrix" : [4.99290227890015, 0, 0, 0, 0, 4.99290227890015, 0, 0, 0, 0, 4.99290227890015, 0, 0, 5.13331270217896, -5.39966440200806, 1], "mesh" : 1, "name" : "Cube.001"}, {"matrix" : [4.99290227890015, 0, 0, 0, 0, 4.99290227890015, 0, 0, 0, 0, 4.99290227890015, 0, 0, -14.5687990188599, -1.65518403053284, 1], "mesh" : 2, "name" : "Plane"}], "scene" : 0, "scenes" : [{"nodes" : [0, 1, 2]}]}