{"accessors" : [{"bufferView" : 0, "byteOffset" : 0, "componentType" : 5123, "count" : 864, "type" : "SCALAR", "max" : [423], "min" : [0]}, {"bufferView" : 1, "byteOffset" : 0, "componentType" : 5126, "count" : 424, "type" : "VEC3", "max" : [1, 144.301513671875, 1], "min" : [-1, -4.37803936004639, -1]}, {"bufferView" : 1, "byteOffset" : 12, "componentType" : 5126, "count" : 424, "type" : "VEC3", "max" : [1.00000441074371, 1.00000441074371, 1.00000441074371], "min" : [-1.00000441074371, -1.00000441074371, -1.00000441074371]}, {"bufferView" : 1, "byteOffset" : 24, "componentType" : 5126, "count" : 424, "type" : "VEC2", "max" : [0.957468450069427, 1.01510715484619], "min" : [0.000577990605961531, 0]}, {"bufferView" : 0, "byteOffset" : 1728, "componentType" : 5123, "count" : 24768, "type" : "SCALAR", "max" : [16408], "min" : [0]}, {"bufferView" : 2, "byteOffset" : 0, "componentType" : 5126, "count" : 16409, "type" : "VEC3", "max" : [0.841555535793304, 56.068302154541, 241.154739379883], "min" : [-0.998453140258789, 0.00186498439870775, -1.00000011920929]}, {"bufferView" : 2, "byteOffset" : 12, "componentType" : 5126, "count" : 16409, "type" : "VEC3", "max" : [0.999998092651367, 1.00000441074371, 1.00000441074371], "min" : [-0.999972462654114, -1.00000441074371, -1.00000441074371]}, {"bufferView" : 2, "byteOffset" : 24, "componentType" : 5126, "count" : 16409, "type" : "VEC2", "max" : [1.00000011920929, 1], "min" : [-5.96128391094908E-09, -1.19209289550781E-07]}, {"bufferView" : 0, "byteOffset" : 51264, "componentType" : 5123, "count" : 2016, "type" : "SCALAR", "max" : [1343], "min" : [0]}, {"bufferView" : 3, "byteOffset" : 0, "componentType" : 5126, "count" : 1344, "type" : "VEC3", "max" : [0.907405853271484, 0.907405853271484, 0.602027356624603], "min" : [-0.907405853271484, -0.907405853271484, -0.485239326953888]}, {"bufferView" : 3, "byteOffset" : 12, "componentType" : 5126, "count" : 1344, "type" : "VEC3", "max" : [0.985626637935638, 0.985626578330994, 0.996748208999634], "min" : [-0.985626578330994, -0.985626578330994, -0.884074509143829]}, {"bufferView" : 3, "byteOffset" : 24, "componentType" : 5126, "count" : 1344, "type" : "VEC2", "max" : [0.87500011920929, 1], "min" : [0.125, -1.19209289550781E-07]}], "asset" : {"generator" : "Aspose.3D 20.2.1", "version" : "2.0"}, "buffers" : [{"uri" : "buffer.bin", "byteLength" : 636976}], "bufferViews" : [{"buffer" : 0, "byteOffset" : 0, "byteLength" : 55296, "target" : 34963}, {"buffer" : 0, "byteOffset" : 55300, "byteLength" : 13568, "byteStride" : 32, "target" : 34962}, {"buffer" : 0, "byteOffset" : 68872, "byteLength" : 525088, "byteStride" : 32, "target" : 34962}, {"buffer" : 0, "byteOffset" : 593964, "byteLength" : 43008, "byteStride" : 32, "target" : 34962}], "meshes" : [{"primitives" : [{"attributes" : {"POSITION" : 1, "NORMAL" : 2, "TEXCOORD_0" : 3}, "indices" : 0, "mode" : 4}]}, {"primitives" : [{"attributes" : {"POSITION" : 5, "NORMAL" : 6, "TEXCOORD_0" : 7}, "indices" : 4, "mode" : 4}]}, {"primitives" : [{"attributes" : {"POSITION" : 9, "NORMAL" : 10, "TEXCOORD_0" : 11}, "indices" : 8, "mode" : 4}]}], "nodes" : [{"matrix" : [2.79398384903058E-06, 0, -81.6273089125591, 0, 0, 0.646790862083435, 0, 0, 46.0708259071936, 0, 1.57693724331997E-06, 0, 5.45524311065674, -5.31010818481445, 64.4195709228516, 1], "mesh" : 0, "name" : "redo"}, {"matrix" : [5.3163322473036E-08, -1.55318684029981, 0, 0, 1.55318684029981, 5.3163322473036E-08, 0, 0, 0, 0, 0.654319107532501, 0, -40.4949340820313, -3.35729622840881, -12.3856544494629, 1], "mesh" : 1, "name" : "Plane.001"}, {"matrix" : [2.16523122787476, 0, 0, 0, 0, 2.16523122787476, 0, 0, 0, 0, 4.69874620437622, 0, 5.45524311065674, 37.4647674560547, -11.0329475402832, 1], "mesh" : 2, "name" : "Cube"}], "scene" : 0, "scenes" : [{"nodes" : [0, 1, 2]}]}